<svg width="223" height="60" viewBox="0 0 223 60" fill="none" xmlns="http://www.w3.org/2000/svg">
<g clip-path="url(#clip0_1_2)">
<path d="M68.0417 5.05349C68.6791 4.98217 69.3209 4.98217 69.9583 5.05349C70.0314 6.47978 69.9583 7.90608 69.9867 9.33237V50.7663C69.9867 52.1641 70.0355 53.5666 69.9461 54.9643C69.316 55.0119 68.684 55.0119 68.0539 54.9643C67.9605 53.5666 68.0214 52.1641 68.0011 50.7663C68.0011 36.9534 68.0011 23.1421 68.0011 9.33237C68.0255 7.90608 67.9645 6.47503 68.0417 5.05349Z" fill="black"/>
<path d="M79.3843 17.6861V18.4303L81.2964 22.0365V40.203L80.9469 40.7307L78 42.6252V44.5129H89.719L89.8972 42.2733L86.4637 41.4344L85.9771 40.8593V37.4357L88.5197 36.2449L91.9463 40.6428L94.2626 44.6888L100.012 44.5129L100.184 43.8972L91.9463 33.9986L96.1815 29.6008L99.2997 27.4899V25.6022H89.0953L88.9171 28.1055L91.5008 28.7686L91.5899 29.161L88.5608 32.6387L85.9771 34.134V20.5886L86.3335 15.2233L85.5317 15L79.3843 17.6861ZM111.862 25.115C106.468 25.115 102.281 29.5196 102.281 35.0609C102.281 41.1705 105.714 45 111.594 45C116.981 45 121.168 40.5954 121.168 35.0609C121.168 28.9851 117.742 25.115 111.862 25.115ZM111.505 28.9851C114.486 28.9851 116.268 31.4547 116.268 35.0609C116.268 37.1245 115.871 38.9716 115.021 40.203C114.219 40.7713 113.109 41.1705 111.951 41.1705C108.963 41.1705 107.181 38.7077 107.181 35.0609C107.181 33.0785 107.585 31.184 108.428 29.912C109.23 29.3369 110.347 28.9851 111.505 28.9851ZM125.89 25.3383L124.78 32.023L126.87 32.6861L129.454 29.161L130.215 28.8566L134.799 29.1204L124.067 42.0501L124.287 44.5129H133.956L140.104 44.7767L140.858 36.9012L138.363 36.6441L136.273 40.8187L135.512 41.2111L130.125 40.9946L140.768 28.1529L140.59 25.6022H131.996L125.89 25.3383ZM144.51 28.1055V28.8566L146.786 32.023V40.203L146.429 40.7307L143.489 42.6252V44.5129H154.667L154.804 42.226L151.994 41.475L151.549 40.9066V30.7037L151.775 25.3383L150.925 25.115L144.51 28.1055ZM145.312 17.862L147.409 22.5237L152.755 19.8376L149.945 15.0947L145.312 17.862ZM157.696 28.1055V28.8566L160.012 32.023V40.203L159.656 40.7307L156.716 42.6252V44.5129H168.209L168.346 42.2733L165.228 41.387L164.782 40.8593V32.7267C165.673 30.3045 167.366 28.9851 169.148 28.9851C171.149 28.9851 172.533 30.2165 172.533 33.1191V40.2909L172.218 40.8187L169.949 42.6252V44.5129H180.017L180.195 42.4019L177.741 41.6982L177.296 41.0825V32.9026C177.296 27.7131 174.315 25.115 170.169 25.115C169.415 25.115 168.613 25.2503 167.941 25.3789C166.564 26.2585 165.049 27.4493 164.021 28.8566H163.576V25.115H162.774L157.696 28.1055ZM180.462 25.6022L180.284 28.065L182.463 28.5047L189.412 44.6482L193.291 44.4249L199.836 30L202.468 27.1854V25.6022H192.976L192.798 27.977L195.43 28.7686L195.56 29.161L194.628 32.7267L191.996 39.5873H191.777L188.035 29.5196L188.124 29.0325L190.303 27.4493V25.6022H180.462ZM213.693 25.115C208.3 25.115 204.113 29.5196 204.113 35.0609C204.113 41.1705 207.546 45 213.426 45C218.813 45 223 40.5954 223 35.0609C223 28.9851 219.573 25.115 213.693 25.115ZM213.337 28.9851C216.318 28.9851 218.1 31.4547 218.1 35.0609C218.1 37.1245 217.702 38.9716 216.853 40.203C216.051 40.7713 214.941 41.1705 213.782 41.1705C210.794 41.1705 209.013 38.7077 209.013 35.0609C209.013 33.0785 209.417 31.184 210.26 29.912C211.062 29.3369 212.179 28.9851 213.337 28.9851Z" fill="black"/>
<path fill-rule="evenodd" clip-rule="evenodd" d="M0.928739 0.91822L0 1.83644V23.5973V45.3584L0.853754 46.2393L1.70751 47.1204H12.7688H23.8301L23.8231 48.6126C23.8152 50.2935 22.9961 52.3125 21.9472 53.2354C21.5612 53.5753 20.0059 54.4982 18.4909 55.287C16.3878 56.3815 15.6618 56.9306 15.4209 57.6075C15.1442 58.3857 15.2141 58.5873 15.9903 59.2473L16.8755 60H29.7054C37.1759 60 42.872 59.8734 43.3413 59.6969C44.2471 59.3563 44.7536 57.9876 44.264 57.2026C44.0921 56.9271 42.6232 55.9948 40.9996 55.1309C37.6185 53.3321 36.6733 52.3077 36.1595 49.8854C35.5285 46.9115 34.7017 47.1204 47.1029 47.1204C58.9735 47.1204 58.9427 47.1248 59.697 45.3245C59.9668 44.6808 60.0421 38.7449 59.9791 23.1393L59.893 1.83298L58.8553 0.916649L57.8176 0H29.8375H1.85748L0.928739 0.91822ZM6.03696 21.2042V36.4398H29.8671H53.6972V21.2042V5.96859H29.8671H6.03696V21.2042ZM30.058 12.644C29.3419 13.2782 29.1284 14.0918 27.9747 20.5759C27.2677 24.5497 26.6891 28.168 26.6894 28.6162C26.6901 30.2651 28.8786 31.0963 29.9986 29.8731C30.7536 29.0482 33.4804 13.9992 33.0266 13.161C32.7054 12.5673 31.7528 11.9372 31.1768 11.9372C31.0001 11.9372 30.4968 12.2554 30.058 12.644ZM17.0738 16.2609C14.1004 19.2069 13.0271 20.4741 13.0271 21.038C13.0271 22.1812 20.8298 29.8429 21.9936 29.8429C23.0622 29.8429 24.2416 28.4494 23.9623 27.5161C23.8543 27.1546 22.4607 25.5512 20.8653 23.9532L17.9651 21.0474L20.7036 18.2987C22.21 16.7868 23.601 15.2409 23.7952 14.8633C24.219 14.0387 23.8114 12.7461 23.0342 12.4511C21.6549 11.9281 21.0677 12.3035 17.0738 16.2609ZM36.3883 12.6779C36.0257 12.9402 35.7982 13.4931 35.7982 14.1116C35.7982 14.9629 36.2586 15.5758 38.777 18.076L41.7558 21.0333L38.6712 24.1376C36.9745 25.8449 35.5863 27.4546 35.5863 27.7147C35.5863 28.5839 36.8607 29.8429 37.7406 29.8429C38.9117 29.8429 46.707 22.1805 46.707 21.0292C46.707 20.4528 45.662 19.2217 42.6515 16.2521C38.4332 12.0908 37.7444 11.6978 36.3883 12.6779ZM28.4865 40.4698C27.3007 41.7653 28.1392 43.7695 29.8671 43.7695C31.0669 43.7695 31.7735 43.0279 31.7735 41.7688C31.7735 40.1215 29.5938 39.2601 28.4865 40.4698Z" fill="black"/>
</g>
<defs>
<clipPath id="clip0_1_2">
<rect width="223" height="60" fill="white"/>
</clipPath>
</defs>
</svg>
